<svg xmlns="http://www.w3.org/2000/svg" version="1.1" xmlns:xlink="http://www.w3.org/1999/xlink" xmlns:svgjs="http://svgjs.dev/svgjs" width="2000" height="1247" viewBox="0 0 2000 1247"><g transform="matrix(1,0,0,1,-1.2121212121212466,0.504858299595071)"><svg viewBox="0 0 396 247" data-background-color="#ffffff" preserveAspectRatio="xMidYMid meet" height="1247" width="2000" xmlns="http://www.w3.org/2000/svg" xmlns:xlink="http://www.w3.org/1999/xlink"><g id="tight-bounds" transform="matrix(1,0,0,1,0.2400000000000091,-0.09999999999999432)"><svg viewBox="0 0 395.52 247.2" height="247.2" width="395.52"><g><svg></svg></g><g><svg viewBox="0 0 395.52 247.2" height="247.2" width="395.52"><mask id="89999e66-5c98-4ba9-85c3-38859ccfff60"><rect width="395.52" height="247.2" fill="white"></rect><g transform="matrix(1,0,0,1,137.38467289719625,37.08)" id="clone"><svg viewBox="0 0 120.75065420560749 173.04" height="173.04" width="120.75065420560749"><g><svg viewBox="0 0 120.75065420560749 173.04" height="173.04" width="120.75065420560749"><g><svg viewBox="0 0 120.75065420560749 173.04" height="173.04" width="120.75065420560749"><g id="SvgjsG1062"><svg viewBox="0 0 120.75065420560749 173.04" height="173.04" width="120.75065420560749" id="SvgjsSvg1061"><g><svg viewBox="0 0 120.75065420560749 173.04" height="173.04" width="120.75065420560749"><g transform="matrix(1,0,0,1,0,0)"><svg width="120.75065420560749" viewBox="-0.9500000476837158 -28.950000762939453 23.400001525878906 33.10000038146973" height="173.04" data-palette-color="#ea3c12"><path d="M12.2-25.45L12.2-25.45Q13.9-25.45 15.58-25.03 17.25-24.6 18.65-23.7L18.65-23.7 17.2-20.5Q16.1-21.4 14.75-21.85 13.4-22.3 12.1-22.3L12.1-22.3Q10.25-22.3 8.88-21.45 7.5-20.6 7.5-18.9L7.5-18.9Q7.5-17.05 8.72-16.15 9.95-15.25 11.65-14.45L11.65-14.45Q12.9-13.85 14.18-13.23 15.45-12.6 16.53-11.73 17.6-10.85 18.28-9.63 18.95-8.4 18.95-6.6L18.95-6.6Q18.95-4.1 17.73-2.48 16.5-0.85 14.53-0.1 12.55 0.65 10.25 0.65L10.25 0.65Q8.25 0.65 6.25 0.1 4.25-0.45 2.55-1.45L2.55-1.45 4.3-4.5Q5.5-3.6 7-3.05 8.5-2.5 9.9-2.5L9.9-2.5Q11.8-2.5 13.23-3.4 14.65-4.3 14.65-6.1L14.65-6.1Q14.65-7.35 13.88-8.18 13.1-9 11.9-9.65 10.7-10.3 9.4-10.9L9.4-10.9Q7.9-11.65 6.48-12.53 5.05-13.4 4.15-14.75 3.25-16.1 3.25-18.2L3.25-18.2Q3.25-20.6 4.53-22.2 5.8-23.8 7.85-24.63 9.9-25.45 12.2-25.45Z" opacity="1" transform="matrix(1,0,0,1,0,0)" fill="black" class="wordmark-text-0" id="SvgjsPath1060" stroke-width="6" stroke="black" stroke-linejoin="round"></path></svg></g></svg></g></svg></g></svg></g></svg></g></svg></g></mask><g mask="url(#89999e66-5c98-4ba9-85c3-38859ccfff60)"><g><path xmlns="http://www.w3.org/2000/svg" d="M203.469 24.016v0c8.852 0 17.491 1.239 25.919 3.718 8.392 2.479 16.394 6.019 24.006 10.622v0l-12.215 17.792c-5.488-4.072-11.454-7.312-17.899-9.719-6.48-2.372-13.172-3.558-20.076-3.559v0c-9.383 0-17.35 2.355-23.9 7.064-6.55 4.674-9.826 12.145-9.826 22.413v0c0 5.665 1.54 10.481 4.621 14.447 3.116 4.001 7.241 7.506 12.375 10.516 5.134 3.01 10.711 5.931 16.73 8.763v0c6.196 2.833 12.534 5.931 19.014 9.295 6.444 3.364 12.375 7.294 17.792 11.79 5.382 4.532 9.719 10.02 13.013 16.465 3.258 6.48 4.886 14.411 4.886 23.794v0c0 12.747-3.098 23.227-9.295 31.442-6.196 8.25-14.34 14.358-24.431 18.324-10.091 4.001-20.979 6.002-32.664 6.001v0c-9.56 0-18.801-1.292-27.724-3.877-8.958-2.549-17.686-6.037-26.184-10.463v0l9.56-21.776c5.842 4.957 12.924 9.029 21.245 12.216 8.321 3.187 16.288 4.78 23.9 4.78v0c5.842 0 11.773-1.115 17.792-3.346 6.019-2.195 11.065-5.771 15.137-10.729 4.072-4.957 6.108-11.33 6.108-19.12v0c0-7.79-1.859-14.216-5.577-19.279-3.718-5.028-8.586-9.277-14.605-12.747-6.019-3.435-12.393-6.745-19.12-9.932v0c-5.842-2.833-11.685-5.754-17.527-8.763-5.842-3.01-11.153-6.55-15.934-10.623-4.78-4.072-8.586-8.94-11.419-14.605-2.833-5.665-4.249-12.481-4.249-20.448v0c0-11.153 2.974-20.448 8.923-27.884 5.913-7.436 13.526-13.065 22.838-16.889 9.277-3.789 18.872-5.683 28.787-5.683z" fill="#ea3c12" fill-rule="nonzero" stroke="none" stroke-width="1" stroke-linecap="butt" stroke-linejoin="miter" stroke-miterlimit="10" stroke-dasharray="" stroke-dashoffset="0" font-family="none" font-weight="none" font-size="none" text-anchor="none" style="mix-blend-mode: normal" data-fill-palette-color="tertiary"></path></g></g><g transform="matrix(1,0,0,1,137.38467289719625,37.08)"><svg viewBox="0 0 120.75065420560749 173.04" height="173.04" width="120.75065420560749"><g><svg viewBox="0 0 120.75065420560749 173.04" height="173.04" width="120.75065420560749"><g><svg viewBox="0 0 120.75065420560749 173.04" height="173.04" width="120.75065420560749"><g id="textblocktransform"><svg viewBox="0 0 120.75065420560749 173.04" height="173.04" width="120.75065420560749" id="textblock"><g><svg viewBox="0 0 120.75065420560749 173.04" height="173.04" width="120.75065420560749"><g transform="matrix(1,0,0,1,0,0)"><svg width="120.75065420560749" viewBox="-0.9500000476837158 -28.950000762939453 23.400001525878906 33.10000038146973" height="173.04" data-palette-color="#ea3c12"><path d="M12.2-25.45L12.2-25.45Q13.9-25.45 15.58-25.03 17.25-24.6 18.65-23.7L18.65-23.7 17.2-20.5Q16.1-21.4 14.75-21.85 13.4-22.3 12.1-22.3L12.1-22.3Q10.25-22.3 8.88-21.45 7.5-20.6 7.5-18.9L7.5-18.9Q7.5-17.05 8.72-16.15 9.95-15.25 11.65-14.45L11.65-14.45Q12.9-13.85 14.18-13.23 15.45-12.6 16.53-11.73 17.6-10.85 18.28-9.63 18.95-8.4 18.95-6.6L18.95-6.6Q18.95-4.1 17.73-2.48 16.5-0.85 14.53-0.1 12.55 0.65 10.25 0.65L10.25 0.65Q8.25 0.65 6.25 0.1 4.25-0.45 2.55-1.45L2.55-1.45 4.3-4.5Q5.5-3.6 7-3.05 8.5-2.5 9.9-2.5L9.9-2.5Q11.8-2.5 13.23-3.4 14.65-4.3 14.65-6.1L14.65-6.1Q14.65-7.35 13.88-8.18 13.1-9 11.9-9.65 10.7-10.3 9.4-10.9L9.4-10.9Q7.9-11.65 6.48-12.53 5.05-13.4 4.15-14.75 3.25-16.1 3.25-18.2L3.25-18.2Q3.25-20.6 4.53-22.2 5.8-23.8 7.85-24.63 9.9-25.45 12.2-25.45Z" opacity="1" transform="matrix(1,0,0,1,0,0)" fill="#ea3c12" class="wordmark-text-0" data-fill-palette-color="primary" id="text-0"></path></svg></g></svg></g></svg></g></svg></g></svg></g></svg></g></svg></g><defs></defs></svg><rect width="395.52" height="247.2" fill="none" stroke="none" visibility="hidden"></rect></g></svg></g></svg>