<svg xmlns="http://www.w3.org/2000/svg" version="1.1" xmlns:xlink="http://www.w3.org/1999/xlink" xmlns:svgjs="http://svgjs.dev/svgjs" width="2000" height="1247" viewBox="0 0 2000 1247"><g transform="matrix(1,0,0,1,-1.2121212121212466,0.5048582995952984)"><svg viewBox="0 0 396 247" data-background-color="#ffffff" preserveAspectRatio="xMidYMid meet" height="1247" width="2000" xmlns="http://www.w3.org/2000/svg" xmlns:xlink="http://www.w3.org/1999/xlink"><g id="tight-bounds" transform="matrix(1,0,0,1,0.2400000000000091,-0.09999999999999432)"><svg viewBox="0 0 395.52 247.2" height="247.2" width="395.52"><g><svg></svg></g><g><svg viewBox="0 0 395.52 247.2" height="247.2" width="395.52"><g transform="matrix(1,0,0,1,75.54432000000001,96.84649510002899)"><svg viewBox="0 0 244.43135999999996 53.507009799942" height="53.507009799942" width="244.43135999999996"><g><svg viewBox="0 0 244.43135999999996 53.507009799942" height="53.507009799942" width="244.43135999999996"><g><svg viewBox="0 0 244.43135999999996 53.507009799942" height="53.507009799942" width="244.43135999999996"><g><svg viewBox="0 0 244.43135999999996 53.507009799942" height="53.507009799942" width="244.43135999999996"><g id="textblocktransform"><svg viewBox="0 0 244.43135999999996 53.507009799942" height="53.507009799942" width="244.43135999999996" id="textblock"><g><svg viewBox="0 0 244.43135999999996 53.507009799942" height="53.507009799942" width="244.43135999999996"><g transform="matrix(1,0,0,1,0,0)"><svg width="244.43135999999996" viewBox="2.75 -36.75 172.44 37.75" height="53.507009799942" data-palette-color="#a437db"><path d="M24.4-8.6L24.4-8.6Q24.4-4.4 21.25-1.7 18.1 1 13.35 1L13.35 1Q10.65 1 7.5 0.08 4.35-0.85 2.8-2.45L2.8-2.45 2.75-4.2Q2.75-7.9 3.3-10.9L3.3-10.9 6-10.9 6.7-4.9Q10.15-2.3 15.05-2.3L15.05-2.3 16.75-2.4Q19.65-3.95 19.65-7.5L19.65-7.5Q19.65-10.55 16.15-12.55L16.15-12.55 8.05-16.75Q3-19.75 3-24.45L3-24.45Q3-28.45 6.3-30.98 9.6-33.5 14.65-33.5L14.65-33.5Q18.15-33.5 22.9-31.95L22.9-31.95 22.95-30.2Q22.95-26.55 22.4-23.5L22.4-23.5 19.7-23.5 19.2-28.05Q16.35-30.25 12.35-30.25L12.35-30.25 10.05-30.05Q7.65-28.6 7.65-25.5L7.65-25.5Q7.65-22.65 11.1-20.75L11.1-20.75 19.1-16.7Q24.4-13.65 24.4-8.6ZM52.8-3.75L53.55-1.55 48.5 0.75Q47.7 0.65 46.52-0.5 45.35-1.65 44.9-2.95L44.9-2.95Q42.4-1.35 39.6-0.3 36.8 0.75 35.25 0.75L35.25 0.75Q32.5 0.15 30.85-2.5L30.85-2.5Q30.05-3.65 30-7.05L30-7.05 30-20.6 26.25-20.3 25.65-22.65Q29-24.1 32.45-24.2L32.45-24.2 34.45-22.45 34.45-7.4Q34.6-3.1 37.75-3.1L37.75-3.1Q40.5-3.1 44.75-5.7L44.75-5.7 44.75-20.6 41-20.3 40.4-22.65Q43.75-24.1 47.2-24.2L47.2-24.2 49.2-22.45 49.2-4.3Q49.2-3.3 50.5-3.3L50.5-3.3Q51.25-3.3 52.8-3.75L52.8-3.75ZM93.45-15.35L93.45-3.2Q96-2.85 96.95-2.4L96.95-2.4 96.65 0 86.4 0 86.15-1.65 89-2.75 89-14.8Q89-20.2 85.8-20.2L85.8-20.2Q83.25-20.2 78.5-16.8L78.5-16.8 78.5-3.2Q81.05-2.85 82-2.4L82-2.4 81.7 0 71.45 0 71.2-1.65 74.05-2.75 74.05-14.8Q74.05-20.2 70.84-20.2L70.84-20.2Q68.25-20.2 63.59-16.85L63.59-16.85 63.59-3.15Q65.7-2.9 66.84-2.4L66.84-2.4 66.55 0 55.84 0 55.59-1.65 59.15-2.95 59.15-20.6 55.4-20.3 54.8-22.65Q58.15-24.1 61.59-24.2L61.59-24.2 63.59-22.45 63.59-19.5Q70.65-24.2 73.25-24.2L73.25-24.2Q74.59-23.95 75.9-22.95 77.2-21.95 77.8-20.85L77.8-20.85 78.25-19.35Q85.8-24.2 88.19-24.2L88.19-24.2Q89.65-23.95 91.12-22.73 92.59-21.5 93.02-20.2 93.45-18.9 93.45-15.35L93.45-15.35ZM115.74-12.85L102.89-13.1Q102.89-8.15 105.17-5.6 107.44-3.05 111.09-3.05L111.09-3.05Q113.79-3.05 117.49-4.7L117.49-4.7 118.24-2.55 110.44 0.75Q104.94 0.75 101.57-2.63 98.19-6 98.19-11.3L98.19-11.3Q98.19-16.7 101.52-20.55 104.84-24.4 109.64-24.4L109.64-24.4Q112.24-24.4 114.32-23.25 116.39-22.1 117.52-20.1 118.64-18.1 118.59-15.65L118.59-15.65 115.74-12.85ZM107.14-21.35L107.14-21.35Q104.29-19.85 103.29-15.75L103.29-15.75 114.24-16.25Q113.74-18.65 111.77-20.1 109.79-21.55 107.14-21.35ZM145.54-3.75L146.29-1.55 141.24 0.75Q140.44 0.65 139.27-0.48 138.09-1.6 137.64-2.9L137.64-2.9 132.19 0.75Q127.24 0.8 123.99-2.8 120.74-6.4 120.74-11.65L120.74-11.65Q120.74-17.1 124.42-20.8 128.09-24.5 133.34-24.5L133.34-24.5Q135.49-24.5 137.49-23.75L137.49-23.75 137.49-33.15 133.74-32.85 133.14-35.2Q136.49-36.65 139.94-36.75L139.94-36.75 141.94-34.95 141.94-4.3Q141.94-3.3 143.24-3.3L143.24-3.3Q143.99-3.3 145.54-3.75L145.54-3.75ZM125.44-12.2L125.44-12.2Q125.44-8.4 127.32-5.88 129.19-3.35 132.24-3.35L132.24-3.35Q134.59-3.35 137.49-5.1L137.49-5.1 137.49-19Q134.64-21.2 131.09-21.2L131.09-21.2 128.99-21Q125.44-17.85 125.44-12.2ZM171.59-15.35L171.59-3.2Q174.09-2.9 175.19-2.4L175.19-2.4 174.89 0 164.54 0 164.29-1.65 167.14-2.75 167.14-14.8Q167.14-20.2 163.94-20.2L163.94-20.2Q161.14-20.2 156.34-16.6L156.34-16.6 156.34-3.15Q158.44-2.9 159.59-2.4L159.59-2.4 159.29 0 148.44 0 148.19-1.65 151.89-3 151.89-33.15 148.14-32.85 147.54-35.2Q150.89-36.65 154.34-36.75L154.34-36.75 156.34-35 156.34-19.3Q163.69-24.2 166.34-24.2L166.34-24.2Q167.79-23.95 169.26-22.73 170.74-21.5 171.16-20.2 171.59-18.9 171.59-15.35L171.59-15.35Z" opacity="1" transform="matrix(1,0,0,1,0,0)" fill="#a437db" class="wordmark-text-0" data-fill-palette-color="primary" id="text-0"></path></svg></g></svg></g></svg></g></svg></g></svg></g></svg></g></svg></g><g><path d="M245.816 0c68.262 0 123.6 55.338 123.6 123.6 0 68.262-55.338 123.6-123.6 123.6-56.809 0-104.666-38.325-119.127-90.531h2.506c14.393 50.856 61.155 88.118 116.621 88.118 66.93 0 121.187-54.257 121.187-121.187 0-66.93-54.257-121.187-121.187-121.187-55.465 0-102.228 37.262-116.621 88.118l-2.506 0c14.461-52.205 62.318-90.531 119.127-90.531z" fill="#a437db" stroke="transparent" data-fill-palette-color="tertiary"></path></g></svg></g><defs></defs></svg><rect width="395.52" height="247.2" fill="none" stroke="none" visibility="hidden"></rect></g></svg></g></svg>